<svg width="605" height="245" viewBox="0 0 605 245" fill="none" xmlns="http://www.w3.org/2000/svg">
<g clip-path="url(#clip0_142_631)">
<path d="M75.4356 229.504C77.4196 231.872 78.4116 234.272 78.4116 236.704C78.4116 239.2 77.0356 241.152 74.2836 242.56C71.5956 244.032 67.8516 244.768 63.0516 244.768C58.8916 244.768 54.2196 244 49.0356 242.464C43.9156 240.992 38.5396 239.2 32.9076 237.088C27.3396 234.976 23.0196 233.568 19.9476 232.864C18.5396 234.592 16.7156 235.904 14.4756 236.8C12.2356 237.696 10.1556 238.144 8.23558 238.144C5.86758 238.144 3.94758 237.408 2.47558 235.936C1.00358 234.528 0.427579 232.576 0.74758 230.08C4.20358 228.992 8.10758 228.448 12.4596 228.448C16.2996 222.432 19.7556 214.336 22.8276 204.16C18.6676 204.992 14.6676 205.408 10.8276 205.408C7.88358 205.408 5.57958 204.736 3.91558 203.392C2.31558 201.984 1.64358 200.192 1.89958 198.016C10.2836 197.952 18.0916 196.928 25.3236 194.944L27.1476 187.36C28.3636 182.368 29.5476 178.016 30.6996 174.304C31.8516 170.592 33.2916 166.784 35.0196 162.88C36.7476 158.912 38.5716 155.68 40.4916 153.184C42.4756 150.624 44.8436 148.544 47.5956 146.944C50.4116 145.344 53.4516 144.544 56.7156 144.544C60.2356 144.544 62.9556 145.792 64.8756 148.288C66.7956 150.784 67.7556 153.952 67.7556 157.792C67.7556 162.848 66.3476 168.128 63.5316 173.632C60.7796 179.136 56.7156 184.352 51.3396 189.28C46.0276 194.208 40.0116 198.08 33.2916 200.896C29.3876 215.04 25.6756 224.288 22.1556 228.64C23.5636 228.768 27.6596 229.536 34.4436 230.944C41.2916 232.352 47.8516 233.056 54.1236 233.056C60.9716 233.056 68.0756 231.872 75.4356 229.504ZM36.7476 187.84L35.8836 191.2C43.7556 187.616 49.8676 182.848 54.2196 176.896C58.6356 170.944 60.8436 164.224 60.8436 156.736C60.8436 152.192 59.2436 149.92 56.0436 149.92C52.2036 149.92 48.8756 152.8 46.0596 158.56C43.3076 164.32 40.2036 174.08 36.7476 187.84Z" fill="#285398"/>
<path d="M78.7632 178.72C77.5472 178.72 76.6512 178.112 76.0752 176.896C75.5632 175.68 75.3072 174.336 75.3072 172.864C75.3072 171.584 75.9152 170.592 77.1312 169.888C78.4112 169.12 79.9792 168.736 81.8352 168.736C83.0512 168.736 84.0112 169.088 84.7152 169.792C85.4832 170.432 85.8672 171.296 85.8672 172.384C85.8672 173.664 85.0032 175.04 83.2752 176.512C81.6112 177.984 80.1072 178.72 78.7632 178.72ZM74.4432 219.808C72.9072 219.808 71.8192 219.328 71.1792 218.368C70.5392 217.408 70.2192 215.648 70.2192 213.088C70.2192 210.784 70.6672 206.976 71.5632 201.664C72.4592 196.352 73.0352 192.544 73.2912 190.24C73.5472 188.064 73.7392 186.336 73.8672 185.056C75.5312 184.8 76.7472 184.672 77.5152 184.672C81.0352 184.672 82.7952 186.336 82.7952 189.664C82.7952 189.728 82.7632 189.856 82.6992 190.048C82.6992 190.24 82.6672 190.592 82.6032 191.104C82.5392 191.552 82.4432 192.16 82.3152 192.928C82.1872 193.696 81.9952 194.816 81.7392 196.288C81.5472 197.76 81.3232 199.424 81.0672 201.28C80.8112 203.136 80.4592 205.568 80.0112 208.576C79.6272 211.584 79.2112 214.88 78.7632 218.464C77.1632 219.36 75.7232 219.808 74.4432 219.808Z" fill="#285398"/>
<path d="M129.651 188.032C130.227 188.224 130.515 188.8 130.515 189.76C130.515 191.232 128.819 192.992 125.427 195.04C122.035 197.024 118.707 198.016 115.443 198.016C112.691 198.016 110.483 197.6 108.819 196.768C111.187 200.096 112.371 204.352 112.371 209.536C112.371 215.104 111.603 220.384 110.067 225.376C108.595 230.432 106.643 234.432 104.211 237.376C101.779 240.384 99.2828 241.888 96.7228 241.888C91.5388 241.888 88.9468 234.272 88.9468 219.04C88.9468 214.624 89.3308 209.088 90.0988 202.432C90.9308 195.712 92.1148 188.64 93.6508 181.216C95.2508 173.728 97.5228 167.392 100.467 162.208C103.411 156.96 106.707 154.336 110.355 154.336C112.723 154.336 114.547 155.68 115.827 158.368C114.995 162.208 113.363 166.368 110.931 170.848C108.563 175.328 106.131 178.688 103.635 180.928C103.251 184.192 102.899 186.784 102.579 188.704C106.867 192.8 111.283 194.848 115.827 194.848C116.787 194.848 117.747 194.752 118.707 194.56C119.667 194.368 120.563 194.112 121.395 193.792C122.291 193.408 123.059 193.056 123.699 192.736C124.339 192.352 125.011 191.904 125.715 191.392C126.483 190.816 127.027 190.4 127.347 190.144C127.731 189.824 128.211 189.408 128.787 188.896L129.651 188.032ZM99.1228 235.072C100.915 235.072 102.867 232.032 104.979 225.952C107.155 219.872 108.243 214.144 108.243 208.768C108.243 201.472 106.099 196.576 101.811 194.08C100.723 201.632 100.083 206.24 99.8908 207.904C98.4188 219.68 97.6188 227.008 97.4908 229.888C97.4268 232.768 97.9708 234.496 99.1228 235.072Z" fill="#285398"/>
<path d="M156 207.616C156.832 208.064 157.248 208.544 157.248 209.056C157.248 211.04 155.776 212.896 152.832 214.624C149.888 216.352 146.752 217.216 143.424 217.216C138.176 217.216 133.824 215.456 130.368 211.936C126.976 208.416 125.28 204 125.28 198.688C125.28 192.48 127.2 187.04 131.04 182.368C134.88 177.696 139.328 175.36 144.384 175.36C147.136 175.36 149.248 176.16 150.72 177.76C152.192 179.296 152.928 181.504 152.928 184.384C152.928 191.936 147.808 198.688 137.568 204.64C139.232 209.44 142.208 211.84 146.496 211.84C149.568 211.84 152.736 210.432 156 207.616ZM144.288 180.544C142.24 180.544 140.384 182.176 138.72 185.44C137.12 188.704 136.32 192.512 136.32 196.864C136.32 198.4 136.416 199.84 136.608 201.184C143.84 195.616 147.456 190.208 147.456 184.96C147.456 183.616 147.168 182.56 146.592 181.792C146.016 180.96 145.248 180.544 144.288 180.544Z" fill="#285398"/>
<path d="M192.951 178.72C191.735 178.72 190.839 178.112 190.263 176.896C189.751 175.68 189.495 174.336 189.495 172.864C189.495 171.584 190.103 170.592 191.319 169.888C192.599 169.12 194.167 168.736 196.023 168.736C197.239 168.736 198.199 169.088 198.903 169.792C199.671 170.432 200.055 171.296 200.055 172.384C200.055 173.664 199.191 175.04 197.463 176.512C195.799 177.984 194.295 178.72 192.951 178.72ZM188.631 219.808C187.095 219.808 186.007 219.328 185.367 218.368C184.727 217.408 184.407 215.648 184.407 213.088C184.407 210.784 184.855 206.976 185.751 201.664C186.647 196.352 187.223 192.544 187.479 190.24C187.735 188.064 187.927 186.336 188.055 185.056C189.719 184.8 190.935 184.672 191.703 184.672C195.223 184.672 196.983 186.336 196.983 189.664C196.983 189.728 196.951 189.856 196.887 190.048C196.887 190.24 196.855 190.592 196.791 191.104C196.727 191.552 196.631 192.16 196.503 192.928C196.375 193.696 196.183 194.816 195.927 196.288C195.735 197.76 195.511 199.424 195.255 201.28C194.999 203.136 194.647 205.568 194.199 208.576C193.815 211.584 193.399 214.88 192.951 218.464C191.351 219.36 189.911 219.808 188.631 219.808Z" fill="#285398"/>
<path d="M231.934 208.48C231.934 204.96 232.606 200.32 233.95 194.56C235.358 188.8 236.062 185.568 236.062 184.864C236.062 183.392 235.71 182.656 235.006 182.656C233.982 182.656 232.158 184.192 229.534 187.264C226.91 190.336 224.126 194.304 221.182 199.168C218.302 203.968 216.19 208.416 214.846 212.512C213.886 212.896 212.83 213.088 211.678 213.088C207.582 213.088 205.534 210.592 205.534 205.6C205.534 202.208 206.11 197.952 207.262 192.832C208.414 187.648 208.99 183.712 208.99 181.024C208.99 179.168 208.958 177.92 208.894 177.28C210.942 175.744 213.086 174.976 215.326 174.976C218.078 174.976 219.454 176.48 219.454 179.488C219.454 180.192 219.006 183.008 218.11 187.936C217.278 192.8 216.798 196.448 216.67 198.88C225.502 185.44 232.862 178.72 238.75 178.72C243.294 178.72 245.566 181.728 245.566 187.744C245.566 189.856 245.118 193.344 244.222 198.208C243.39 203.008 242.974 206.08 242.974 207.424C242.974 209.088 243.262 210.432 243.838 211.456C244.414 212.48 245.47 213.472 247.006 214.432C245.598 217.696 243.07 219.328 239.422 219.328C234.43 219.328 231.934 215.712 231.934 208.48Z" fill="#285398"/>
<path d="M374.726 137.536C377.606 138.816 379.046 140.416 379.046 142.336C379.046 144.576 376.934 146.176 372.71 147.136C368.55 148.096 361.094 148.608 350.342 148.672C346.118 148.672 342.118 148.768 338.342 148.96C338.47 149.472 338.534 149.824 338.534 150.016C335.142 159.744 332.102 170.496 329.414 182.272C326.726 193.984 325.382 204.736 325.382 214.528C325.382 222.912 326.086 228.928 327.494 232.576C325.254 233.28 322.822 233.632 320.198 233.632C317.446 233.632 315.302 232.864 313.766 231.328C312.23 229.792 311.462 227.616 311.462 224.8V221.536C311.462 212.448 313.478 199.872 317.51 183.808C321.606 167.744 325.67 156.32 329.702 149.536C320.102 150.304 312.902 151.712 308.102 153.76C303.366 155.744 300.998 158.528 300.998 162.112C300.998 164.288 302.054 166.176 304.166 167.776C301.734 169.696 299.046 170.656 296.102 170.656C293.542 170.656 291.526 169.984 290.054 168.64C288.646 167.232 287.942 165.344 287.942 162.976C287.942 157.984 291.11 153.728 297.446 150.208C303.782 146.688 312.55 144.288 323.75 143.008C329.702 142.304 337.286 141.92 346.502 141.856C355.718 141.728 362.022 141.472 365.414 141.088C369.702 140.64 372.806 139.456 374.726 137.536Z" fill="#FFD700"/>
<path d="M394.18 189.184C394.692 188.608 395.332 188.384 396.1 188.512C396.548 188.576 396.676 188.832 396.484 189.28C395.332 191.968 391.972 196.16 386.404 201.856C380.836 207.488 375.908 210.304 371.62 210.304C367.652 210.304 365.764 207.776 365.956 202.72C363.972 206.112 361.188 209.088 357.604 211.648C354.084 214.208 350.82 215.488 347.812 215.488C344.868 215.488 342.468 214.496 340.612 212.512C338.756 210.464 337.828 207.84 337.828 204.64C337.828 197.92 340.484 191.84 345.796 186.4C351.108 180.96 356.996 178.24 363.46 178.24C366.276 178.24 368.868 179.104 371.236 180.832C373.668 182.56 375.076 184.544 375.46 186.784C373.476 192.672 372.484 197.024 372.484 199.84C372.484 203.488 373.604 205.312 375.844 205.312C379.044 205.312 385.156 199.936 394.18 189.184ZM350.788 208.096C353.54 208.096 356.708 205.312 360.292 199.744C363.94 194.176 366.308 189.408 367.396 185.44C367.204 183.008 365.892 181.792 363.46 181.792C360.708 181.792 357.476 184.448 353.764 189.76C350.116 195.008 348.292 199.648 348.292 203.68C348.292 204.96 348.516 206.016 348.964 206.848C349.412 207.68 350.02 208.096 350.788 208.096Z" fill="#FFD700"/>
<path d="M438.407 189.952C439.623 189.952 440.231 190.496 440.231 191.584C440.231 192.16 439.623 193.536 438.407 195.712C437.191 197.888 435.463 200.448 433.223 203.392C430.983 206.272 428.519 209.088 425.831 211.84C423.207 214.592 420.263 216.928 416.999 218.848C413.735 220.768 410.631 221.728 407.687 221.728C404.295 221.728 401.543 220.832 399.431 219.04C397.319 217.184 396.263 214.816 396.263 211.936C396.263 209.44 396.839 207.008 397.991 204.64C399.143 202.272 400.711 199.808 402.695 197.248C404.743 194.624 405.927 193.056 406.247 192.544C394.471 192.224 388.583 189.216 388.583 183.52C388.583 180.384 389.735 177.76 392.039 175.648C394.407 173.472 397.095 172.384 400.103 172.384C401.191 172.384 402.023 172.736 402.599 173.44C403.239 174.08 403.559 174.976 403.559 176.128C403.559 178.432 402.247 181.472 399.623 185.248C401.287 185.696 403.879 186.08 407.399 186.4C410.919 186.72 413.671 187.136 415.655 187.648C417.639 188.16 418.631 188.992 418.631 190.144C418.631 191.36 417.703 193.28 415.847 195.904C413.991 198.464 412.103 201.28 410.183 204.352C408.327 207.424 407.399 210.112 407.399 212.416C407.399 215.488 408.711 217.024 411.335 217.024C414.983 217.024 419.303 214.272 424.295 208.768C429.351 203.2 434.055 196.928 438.407 189.952ZM398.855 174.112C398.023 174.112 397.063 174.88 395.975 176.416C394.887 177.888 394.343 179.328 394.343 180.736C394.343 182.144 395.079 183.264 396.551 184.096C398.663 180.64 399.719 177.824 399.719 175.648C399.719 174.624 399.431 174.112 398.855 174.112Z" fill="#FFD700"/>
<path d="M468.643 219.04C466.019 219.04 464.099 218.176 462.883 216.448C461.731 214.72 461.155 211.968 461.155 208.192C461.155 204.8 461.827 200.256 463.171 194.56C464.515 188.864 465.187 185.632 465.187 184.864C465.187 183.392 464.835 182.656 464.131 182.656C463.107 182.656 461.283 184.192 458.659 187.264C456.035 190.336 453.251 194.304 450.307 199.168C447.427 203.968 445.315 208.416 443.971 212.512C443.011 212.896 441.955 213.088 440.803 213.088C436.707 213.088 434.659 210.592 434.659 205.6C434.659 202.208 435.235 197.952 436.387 192.832C437.539 187.712 438.115 183.808 438.115 181.12C438.115 179.264 438.051 177.984 437.923 177.28C440.099 175.744 442.275 174.976 444.451 174.976C447.203 174.976 448.579 176.48 448.579 179.488C448.579 180.192 448.131 183.008 447.235 187.936C446.403 192.8 445.923 196.448 445.795 198.88C454.627 185.44 461.987 178.72 467.875 178.72C472.419 178.72 474.691 181.728 474.691 187.744C474.691 189.856 474.243 193.312 473.347 198.112C472.515 202.912 472.099 205.92 472.099 207.136C472.099 210.912 473.091 212.8 475.075 212.8C477.315 212.8 481.539 210.56 487.747 206.08C493.955 201.6 498.915 196.416 502.627 190.528C504.419 190.208 505.315 190.464 505.315 191.296C505.315 192.448 504.131 194.528 501.763 197.536C499.395 200.48 496.483 203.584 493.027 206.848C489.571 210.048 485.571 212.896 481.027 215.392C476.483 217.824 472.355 219.04 468.643 219.04Z" fill="#FFD700"/>
<path d="M536.398 152.512C536.398 155.008 534.094 158.656 529.486 163.456C524.942 168.192 521.102 170.56 517.966 170.56C517.07 170.56 516.078 170.112 514.99 169.216C517.358 166.72 519.406 164.16 521.134 161.536C522.862 158.912 523.918 157.184 524.302 156.352C524.686 155.456 525.262 154.08 526.03 152.224C527.694 151.328 529.582 150.88 531.694 150.88C532.974 150.88 534.062 151.072 534.958 151.456C535.918 151.776 536.398 152.128 536.398 152.512ZM555.502 188.416C556.334 188.608 556.75 189.12 556.75 189.952C556.75 192.384 554.542 195.36 550.126 198.88C545.71 202.336 541.166 204.064 536.494 204.064C534.446 204.064 532.462 203.488 530.542 202.336C528.75 206.112 526.254 209.216 523.054 211.648C519.918 214.016 516.302 215.232 512.206 215.296C507.918 215.36 504.43 214.016 501.742 211.264C499.118 208.448 497.806 204.832 497.806 200.416C497.806 196.576 498.702 193.344 500.494 190.72C502.35 188.096 504.654 186.688 507.406 186.496C508.174 183.232 509.87 180.672 512.494 178.816C515.182 176.96 518.158 176.032 521.422 176.032C525.326 176.032 528.27 177.408 530.254 180.16C532.302 182.912 533.326 186.368 533.326 190.528C533.326 192.576 533.006 194.944 532.366 197.632C533.966 199.168 535.982 199.936 538.414 199.936C544.622 199.936 550.318 196.096 555.502 188.416ZM512.59 212.416C515.534 212.416 518.062 210.176 520.174 205.696C522.35 201.216 523.438 196.48 523.438 191.488C523.438 188.416 522.958 185.856 521.998 183.808C521.038 181.76 519.598 180.736 517.678 180.736C515.054 180.736 512.462 182.72 509.902 186.688C512.014 187.392 513.07 189.056 513.07 191.68C513.07 192.832 512.814 194.176 512.302 195.712C510.766 196.48 509.55 197.728 508.654 199.456C507.758 201.184 507.31 203.072 507.31 205.12C507.31 207.168 507.758 208.896 508.654 210.304C509.55 211.712 510.862 212.416 512.59 212.416Z" fill="#FFD700"/>
<path d="M562.592 216.448C559.52 216.448 557.12 215.008 555.392 212.128C553.664 209.184 552.8 205.12 552.8 199.936C552.8 184 556.512 176.032 563.936 176.032C565.408 176.032 567.008 176.352 568.736 176.992C565.28 184.16 563.552 192.064 563.552 200.704C563.552 207.616 564.8 211.072 567.296 211.072C569.28 211.072 571.168 209.312 572.96 205.792C574.752 202.272 575.648 198.272 575.648 193.792V191.68C576.672 191.104 577.856 190.816 579.2 190.816C580.8 190.816 581.824 191.52 582.272 192.928C582.72 194.272 582.944 197.408 582.944 202.336C582.944 208.416 584.288 211.456 586.976 211.456C589.664 211.456 591.808 209.664 593.408 206.08C595.072 202.496 595.904 198.048 595.904 192.736C595.904 188.64 595.264 184.864 593.984 181.408C595.392 180.384 596.992 179.872 598.784 179.872C602.88 179.872 604.928 182.976 604.928 189.184C604.928 193.024 604.192 196.864 602.72 200.704C601.312 204.544 599.104 207.872 596.096 210.688C593.088 213.44 589.696 214.816 585.92 214.816C580.672 214.816 577.76 211.616 577.184 205.216C573.6 212.704 568.736 216.448 562.592 216.448Z" fill="#FFD700"/>
<path d="M223 73.2631C223 71.1577 222 68 220 68C218 68 217 71.1579 217 73.2631C217 75.3683 218 78 220 78C222 78 223 75.3685 223 73.2631Z" stroke="#285398" stroke-width="2" stroke-linejoin="round"/>
<path d="M244 68.2631C244 66.1577 243 63 241 63C239 63 238 66.1579 238 68.2631C238 70.3683 239 73 241 73C243 73 244 70.3685 244 68.2631Z" stroke="#285398" stroke-width="2" stroke-linejoin="round"/>
<path d="M233 69.2631C233 67.1577 232 64 230 64C228 64 227 67.1579 227 69.2631C227 71.3683 228 74 230 74C232 74 233 71.3685 233 69.2631Z" stroke="#285398" stroke-width="2" stroke-linejoin="round"/>
<path d="M255 69.2631C255 67.1577 254 64 252 64C250 64 249 67.1579 249 69.2631C249 71.3683 250 74 252 74C254 74 255 71.3685 255 69.2631Z" stroke="#285398" stroke-width="2" stroke-linejoin="round"/>
<path d="M266 72.2631C266 70.1577 265 67 263 67C261 67 260 70.1579 260 72.2631C260 74.3683 261 77 263 77C265 77 266 74.3685 266 72.2631Z" stroke="#285398" stroke-width="2" stroke-linejoin="round"/>
<path d="M139.213 176.929C139.229 176.924 139.245 176.919 139.261 176.914L139.706 176.798C139.541 176.838 139.376 176.882 139.213 176.929ZM140.604 176.606L140.153 176.695C140.303 176.663 140.453 176.634 140.603 176.606L141.058 176.531C140.906 176.554 140.755 176.579 140.604 176.606ZM141.516 176.47C141.653 176.453 141.791 176.439 141.928 176.427L141.516 176.47ZM239.484 1.36132C239.652 1.1745 240.631 0.158036 242.128 0.606432C242.779 0.801693 243.185 1.20197 243.395 1.46678C243.605 1.73107 243.721 1.98316 243.781 2.13182C243.9 2.42622 243.948 2.69429 243.97 2.83397C244.056 3.36973 244.051 4.10074 244.033 4.75585C244.012 5.48611 243.963 6.3838 243.894 7.37987C243.744 9.57298 243.491 12.3512 243.218 15.1084C243.456 16.7752 243.776 18.4718 244.145 20.1269C245.286 25.2448 246.772 29.5098 247.091 30.3574L247.092 30.3584C247.092 30.3593 247.092 30.3607 247.093 30.3623C247.094 30.3657 247.096 30.3707 247.098 30.3769C247.103 30.3896 247.111 30.4063 247.12 30.4277C247.138 30.4713 247.163 30.5278 247.194 30.5976C247.257 30.7378 247.341 30.9164 247.444 31.1328C247.651 31.5654 247.925 32.1209 248.254 32.7744C248.91 34.0803 249.766 35.7447 250.695 37.5351C252.368 40.7584 254.27 44.3677 255.657 46.9834C257.366 47.6343 259.582 48.4962 261.521 49.2939C262.666 49.7646 263.742 50.2237 264.569 50.6084C264.978 50.7984 265.364 50.988 265.679 51.164C265.835 51.2505 266.014 51.3566 266.185 51.4765C266.276 51.5402 266.672 51.8102 266.976 52.2656C266.932 52.1989 266.982 52.2704 267.294 52.6348C267.548 52.9324 267.883 53.3192 268.285 53.7842C269.077 54.7019 270.093 55.8865 271.055 57.0703C272.001 58.2335 272.962 59.4784 273.605 60.5029C273.904 60.9793 274.257 61.5971 274.443 62.2217C274.529 62.5091 274.677 63.1047 274.531 63.7988C274.377 64.5285 273.93 65.1883 273.254 65.5889C272.668 65.9938 272.006 66.254 271.612 66.4082C271.026 66.6373 270.631 66.7768 270.234 66.9687C269.958 67.1026 269.811 67.2036 269.741 67.2617V91.0185C269.741 91.7895 269.442 92.4125 269.278 92.7217C269.082 93.0896 268.84 93.4372 268.622 93.7295C268.196 94.2991 267.62 94.9676 267.172 95.5068C266.676 96.1027 266.27 96.6161 265.991 97.0557C265.863 97.2571 265.8 97.3873 265.769 97.4541C265.856 99.3851 265.871 106.173 265.858 113.855C265.845 122.028 265.798 131.426 265.76 137.696C265.857 137.866 266.498 139.157 269.964 139.688L270.561 139.784C273.525 140.281 276.082 141.017 277.927 141.531C278.946 141.815 279.654 142.003 280.153 142.092C281.622 141.157 283.584 140.213 284.538 137.201C284.811 136.34 285.01 135.104 285.18 133.626C285.329 132.341 285.489 130.513 285.641 129.297C285.726 128.625 285.827 127.951 285.964 127.351C286.086 126.811 286.29 126.071 286.695 125.44C286.908 125.108 287.276 124.649 287.871 124.326C288.535 123.966 289.287 123.886 289.992 124.064C291.138 124.355 291.858 125.248 292.215 125.732C293.865 127.976 294.409 130.446 294.692 132.295C294.763 132.76 294.82 133.203 294.87 133.59C294.921 133.99 294.963 134.316 295.009 134.604C295.093 135.134 295.158 135.274 295.136 135.239C295.467 135.748 295.714 136.268 295.894 136.663C296.109 137.135 296.23 137.42 296.383 137.702C296.445 137.819 296.498 137.902 296.54 137.962C296.659 137.915 296.807 137.85 296.985 137.762C297.672 137.422 298.537 136.882 299.501 136.219C300.451 135.564 301.426 134.839 302.331 134.159C303.208 133.5 304.068 132.845 304.701 132.403C305.646 131.744 306.802 131.348 307.79 131.076C308.812 130.795 309.92 130.58 310.863 130.395C311.864 130.198 312.655 130.039 313.252 129.859C313.328 129.836 313.394 129.811 313.452 129.791C313.479 129.699 313.511 129.595 313.543 129.479C313.706 128.885 313.9 128.074 314.116 127.1C314.547 125.157 315.039 122.671 315.506 120.186C315.699 119.157 315.885 118.13 316.062 117.148C315.418 114.953 315.24 113.176 315.464 111.739C315.715 110.12 316.516 108.813 317.777 108.145C318.353 107.839 319.054 107.662 319.78 107.748C320.13 107.79 320.636 107.911 321.124 108.265C321.65 108.646 322.219 109.374 322.219 110.4C322.219 110.654 322.175 110.968 322.16 111.075C322.133 111.275 322.094 111.533 322.048 111.833C321.954 112.436 321.819 113.25 321.657 114.202C321.524 114.983 321.369 115.862 321.203 116.8C321.859 118.675 322.967 121.134 324.76 124.318L325.167 125.033L325.283 125.262C325.8 126.418 325.369 127.802 324.247 128.447C323.125 129.093 321.711 128.771 320.971 127.742L320.833 127.527L320.405 126.775C320.123 126.274 319.855 125.786 319.6 125.312C319.393 126.337 319.191 127.31 318.998 128.183C318.775 129.189 318.56 130.092 318.364 130.804C318.267 131.157 318.166 131.493 318.064 131.784C317.986 132.008 317.832 132.432 317.581 132.808C317.134 133.475 316.524 133.868 316.092 134.096C315.632 134.337 315.139 134.513 314.693 134.647C313.812 134.913 312.757 135.118 311.826 135.301C310.837 135.495 309.924 135.674 309.116 135.896C308.273 136.128 307.789 136.346 307.562 136.504C307.024 136.879 306.272 137.45 305.335 138.155C304.424 138.839 303.379 139.619 302.338 140.336C301.365 141.006 300.328 141.667 299.363 142.16C298.768 142.39 298.184 142.626 297.61 142.87C297.601 142.873 297.591 142.876 297.582 142.879C297.064 143.018 296.285 143.157 295.453 142.95C293.524 142.469 292.538 141.103 291.984 140.078C291.727 139.601 291.496 139.069 291.345 138.738C291.168 138.35 291.048 138.115 290.934 137.945C290.36 137.087 290.173 136.033 290.071 135.39C290.057 135.301 290.044 135.21 290.031 135.118C289.867 136.351 289.648 137.626 289.304 138.711C288.431 141.466 286.885 143.304 285.432 144.534C284.716 145.141 284.031 145.593 283.493 145.927C283.239 146.084 282.978 146.239 282.821 146.334C282.734 146.387 282.669 146.426 282.62 146.458C282.571 146.49 282.555 146.501 282.56 146.497C281.846 147.031 281.069 147.117 280.638 147.132C280.164 147.148 279.695 147.088 279.3 147.019C278.511 146.88 277.551 146.617 276.586 146.349C274.823 145.858 272.694 145.248 270.264 144.808L269.205 144.631C263.89 143.816 261.135 141.038 260.791 138.391L260.765 138.135C260.761 138.07 260.758 138.005 260.759 137.94L260.818 126.65C260.836 122.445 260.851 117.988 260.858 113.847C260.87 106.517 260.855 100.342 260.795 98.1855L260.766 97.5156L260.759 97.3232C260.759 96.0952 261.36 95.0197 261.771 94.373C262.238 93.638 262.828 92.9102 263.328 92.3096C263.875 91.6522 264.295 91.1673 264.616 90.7373C264.667 90.6693 264.707 90.6102 264.741 90.5615V67.1992C264.741 64.4144 266.798 63.0768 268.055 62.4678C268.265 62.3665 268.483 62.2721 268.695 62.1836C268.269 61.5992 267.749 60.9288 267.176 60.2236C266.264 59.1017 265.289 57.9656 264.5 57.0517C264.111 56.601 263.757 56.1936 263.492 55.8828C263.393 55.7669 263.273 55.6265 263.157 55.4853C262.996 55.3998 262.766 55.284 262.46 55.1416C261.736 54.8048 260.742 54.3793 259.62 53.918C257.384 52.9986 254.75 51.9806 253.007 51.3242C252.437 51.1097 251.965 50.6947 251.679 50.1572C250.271 47.5063 248.124 43.4362 246.257 39.8389C245.323 38.0409 244.456 36.3534 243.786 35.0185C243.229 33.9108 242.746 32.9246 242.501 32.3418L242.411 32.1182C242.18 31.5045 241.526 29.6347 240.778 27.0703C239.605 30.7724 238.334 34.9203 237.024 38.8623C236.078 41.708 235.131 44.3755 234.251 46.4248C233.813 47.4436 233.363 48.3801 232.907 49.1318C232.679 49.5077 232.418 49.8884 232.123 50.2265C231.883 50.5013 231.526 50.8592 231.042 51.1328L230.827 51.2441C226.607 53.2413 224.395 53.8531 221.39 54.9326C220.554 55.6059 219.61 56.2977 218.686 56.9619C217.6 57.7431 216.536 58.4983 215.559 59.2529C214.576 60.0123 213.778 60.6987 213.218 61.3086C213.063 61.4769 212.943 61.6222 212.85 61.7441C212.998 61.8907 213.18 62.0634 213.403 62.2666C214.255 63.0447 215.743 64.2909 216.734 65.5605C217.164 66.1115 217.351 66.7348 217.446 67.1142C217.556 67.5542 217.626 68.0336 217.674 68.5049C217.769 69.4512 217.797 70.6054 217.79 71.8437C217.775 74.3315 217.61 77.4288 217.434 80.4307C217.257 83.4677 217.07 86.4021 216.998 88.6738C216.962 89.8136 216.958 90.7201 216.991 91.3555C216.997 91.4731 217.004 91.5727 217.011 91.6553C218.261 93.064 220.575 95.6783 221.527 97.1015C221.767 97.4608 221.866 97.8083 221.896 97.915C221.942 98.0773 221.974 98.2322 221.995 98.3535C222.038 98.5992 222.07 98.8772 222.096 99.1562C222.15 99.7236 222.194 100.471 222.231 101.349C222.305 103.114 222.355 105.535 222.381 108.375C222.432 114.062 222.388 121.508 222.241 128.928C222.094 136.342 221.844 143.762 221.482 149.388C221.302 152.191 221.09 154.601 220.842 156.357C220.719 157.222 220.576 158.016 220.397 158.645C220.311 158.95 220.185 159.327 219.995 159.685C219.883 159.894 219.4 160.803 218.291 161.135C217.753 161.296 217.143 161.334 216.52 161.167C215.91 161.003 215.438 160.681 215.094 160.351C214.467 159.747 214.134 158.983 213.945 158.461C213.783 158.011 213.649 157.506 213.535 156.988C213.498 157.205 213.461 157.418 213.427 157.626C213.279 158.517 213.118 159.541 212.949 160.129C212.951 160.121 212.944 160.148 212.927 160.237C212.911 160.327 212.894 160.428 212.87 160.579C212.826 160.851 212.759 161.265 212.646 161.696C212.426 162.538 211.927 163.864 210.574 164.729C209.217 165.595 207.572 165.639 205.884 165.263C204.188 164.884 202.102 164.011 199.491 162.559C198.433 161.97 197.523 161.317 196.742 160.623C196.612 161.145 196.484 161.639 196.352 162.09C196.283 162.327 196.209 162.56 196.135 162.786C195.929 162.768 195.724 162.754 195.52 162.746L195.023 162.736C192.239 162.736 189.391 163.31 186.811 164.831C185.024 165.866 183.541 167.345 182.599 169.184C181.844 168.661 181.321 167.961 180.97 167.341C180.447 166.415 180.124 165.365 179.91 164.444C179.88 164.317 179.855 164.188 179.828 164.058C179.754 164.298 179.679 164.543 179.6 164.787C179.237 165.918 178.803 167.14 178.31 168.187C178.064 168.71 177.777 169.244 177.445 169.722C177.133 170.172 176.671 170.732 176.023 171.136C174.801 171.897 173.491 172.435 171.684 172.477C170.033 172.515 168.094 172.134 165.583 171.419C165.258 171.326 164.959 171.2 164.683 171.052C164.618 171.221 164.553 171.385 164.484 171.538C164.384 171.761 164.26 172.007 164.108 172.244C163.978 172.448 163.723 172.812 163.313 173.118C162.299 173.876 161.184 173.833 160.563 173.742C159.929 173.649 159.319 173.43 158.929 173.286C158.607 173.167 158.385 173.081 158.196 173.015C158.033 173.169 157.857 173.342 157.637 173.558C157.413 173.779 157.15 174.035 156.874 174.284C156.595 174.536 156.232 174.844 155.807 175.131C155.519 174.751 155.208 174.379 154.871 174.02C154.846 173.994 154.821 173.968 154.797 173.941C154.789 173.933 154.782 173.925 154.774 173.917H154.773C152.067 171.034 148.582 169.725 145.023 169.428C145.222 167.074 145.743 164.303 146.874 161.71L147.01 161.408C147.152 161.109 147.307 160.818 147.48 160.554C147.677 160.254 148.062 159.728 148.699 159.375C149.055 159.178 149.537 159.01 150.107 159.02C150.688 159.031 151.187 159.224 151.571 159.477C152.247 159.922 152.57 160.549 152.704 160.837C153.002 161.481 153.161 162.267 153.265 162.893C153.381 163.583 153.474 164.374 153.555 165.167C153.726 166.825 153.852 168.471 154.047 169.89C154.054 169.945 154.063 169.999 154.07 170.052C154.091 170.032 154.113 170.012 154.134 169.991C154.341 169.787 154.589 169.541 154.823 169.322C155.055 169.106 155.343 168.849 155.655 168.626C155.93 168.43 156.442 168.097 157.11 167.964L157.28 167.935C158.122 167.809 158.885 167.998 159.317 168.124C159.643 168.219 159.994 168.346 160.283 168.454C160.542 167.581 160.827 166.378 161.084 164.952C161.118 164.759 161.148 164.562 161.181 164.363C160.904 162.454 160.849 160.387 160.898 158.584C160.959 156.372 161.185 154.288 161.469 153.144C161.525 152.914 161.651 152.425 161.917 151.984C161.996 151.853 162.135 151.644 162.352 151.433C162.561 151.23 162.97 150.9 163.59 150.762C165.2 150.402 166.113 151.587 166.314 151.903C166.557 152.284 166.655 152.656 166.694 152.812C166.745 153.017 166.777 153.221 166.801 153.401C166.847 153.764 166.875 154.198 166.891 154.688C166.997 157.957 166.696 161.41 166.248 164.352C166.267 164.453 166.288 164.553 166.309 164.651C166.493 165.501 166.714 166.086 166.92 166.436C166.982 166.541 167.031 166.603 167.061 166.639C169.401 167.3 170.714 167.498 171.568 167.479C172.24 167.463 172.676 167.315 173.271 166.957C173.287 166.937 173.311 166.909 173.338 166.87C173.456 166.699 173.609 166.432 173.787 166.055C174.143 165.299 174.5 164.317 174.84 163.259C175.176 162.211 175.472 161.164 175.723 160.282C175.846 159.851 175.964 159.443 176.066 159.11C176.148 158.846 176.282 158.42 176.45 158.086L176.595 157.812C176.955 157.175 177.446 156.573 178.074 156.135C178.715 155.687 179.94 155.155 181.268 155.725C181.291 155.731 181.322 155.739 181.359 155.749C181.547 155.8 182.014 155.926 182.499 156.248C183.621 156.994 184.043 158.19 184.205 159.318C184.364 160.426 184.428 161.8 184.779 163.31C184.832 163.537 184.89 163.745 184.947 163.935C185.188 163.43 185.551 162.634 185.874 162.08C186.067 161.749 186.357 161.3 186.762 160.911C187.172 160.518 187.926 159.976 188.992 159.976L189.219 159.984C189.734 160.025 190.14 160.195 190.319 160.273C190.579 160.387 190.822 160.523 191 160.626C191.202 160.743 191.35 160.835 191.483 160.915C191.505 160.842 191.529 160.766 191.552 160.687C191.872 159.594 192.215 158.125 192.546 156.492C192.676 155.849 192.8 155.187 192.922 154.523C192.473 152.879 192.387 151.274 192.505 149.887C192.657 148.094 193.165 146.403 193.857 145.379C194.018 145.14 194.36 144.676 194.923 144.346C195.228 144.166 195.745 143.941 196.41 143.971C197.14 144.003 197.752 144.329 198.176 144.76C198.858 145.454 198.96 146.309 198.989 146.575C199.033 146.981 199.015 147.397 198.976 147.78C198.81 149.437 198.478 151.762 198.067 154.145C198.688 155.599 199.858 157.041 201.922 158.189C204.348 159.539 205.952 160.154 206.972 160.382C207.376 160.472 207.637 160.49 207.791 160.487C207.796 160.47 207.803 160.452 207.808 160.432C207.853 160.261 207.888 160.066 207.934 159.779C207.97 159.56 208.033 159.131 208.142 158.751C208.208 158.522 208.311 157.911 208.493 156.81C208.657 155.817 208.864 154.58 209.13 153.383C209.388 152.217 209.735 150.925 210.224 149.877C210.467 149.358 210.812 148.749 211.312 148.237C211.831 147.708 212.677 147.132 213.826 147.132L214.082 147.142C215.309 147.237 216.105 148.006 216.521 148.588C216.86 143.129 217.1 136.001 217.242 128.828C217.388 121.449 217.432 114.051 217.381 108.42C217.355 105.601 217.306 103.244 217.235 101.559C217.2 100.711 217.16 100.065 217.119 99.626C217.115 99.5827 217.108 99.5431 217.104 99.5068C216.117 98.1726 214.027 95.8272 212.891 94.5439C212.555 94.1634 212.39 93.7655 212.311 93.5459C212.222 93.2976 212.167 93.0572 212.131 92.8603C212.057 92.467 212.019 92.0331 211.997 91.6142C211.953 90.7653 211.964 89.691 212.001 88.5156C212.075 86.1566 212.269 83.1203 212.443 80.1387C212.619 77.1219 212.776 74.1511 212.79 71.8135C212.797 70.6394 212.767 69.6909 212.698 69.0068C212.671 68.7391 212.638 68.5479 212.612 68.4199C211.969 67.6633 211.071 66.9084 210.032 65.9599C209.534 65.5053 208.953 64.9546 208.51 64.3867C208.188 63.9741 207.363 62.8556 207.614 61.416H207.612C207.852 59.9831 208.739 58.7932 209.536 57.9258C210.384 57.0033 211.446 56.1136 212.503 55.2969C213.566 54.4755 214.722 53.6543 215.766 52.9033C216.838 52.1326 217.789 51.4367 218.55 50.8017L218.721 50.6709C218.898 50.5474 219.091 50.4473 219.295 50.373L220.532 49.9307C223.202 48.993 224.995 48.456 228.427 46.8467C228.477 46.7784 228.546 46.6779 228.633 46.5361C228.913 46.0735 229.258 45.3804 229.657 44.4521C230.45 42.6063 231.342 40.105 232.279 37.2861C234.054 31.9463 236.084 25.1368 237.609 20.6553C237.793 19 237.99 17.111 238.182 15.1982C237.685 11.4205 237.564 7.51734 238.336 4.27147L238.489 3.6494C238.646 3.04246 238.814 2.49137 239.004 2.09374C239.067 1.96148 239.217 1.65823 239.484 1.36132ZM136.298 156.208C137.166 155.949 137.982 156.195 138.531 156.604C138.977 156.935 139.199 157.327 139.286 157.494C139.47 157.849 139.54 158.184 139.566 158.316C139.683 158.898 139.717 159.788 139.717 160.841C139.717 162.826 139.504 164.684 139.161 166.383C139.244 167.372 139.373 168.353 139.564 169.257C139.594 169.398 139.626 169.535 139.657 169.666C136.531 170.186 133.652 171.358 131.035 173.074C131.046 173.06 131.056 173.046 131.067 173.032L131.284 172.751C132.072 171.667 133.369 169.287 134.123 166.027C134.06 165.024 134.037 164.05 134.044 163.158C134.058 161.097 134.222 159.154 134.476 158.207C134.513 158.071 134.58 157.845 134.694 157.604C134.75 157.486 134.858 157.278 135.038 157.056C135.192 156.865 135.594 156.418 136.298 156.208Z" fill="#285398"/>
</g>
<defs>
<clipPath id="clip0_142_631">
<rect width="605" height="245" fill="white"/>
</clipPath>
</defs>
</svg>
