<svg width="24" height="24" viewBox="0 0 24 24" fill="none" xmlns="http://www.w3.org/2000/svg">
<circle cx="12" cy="12" r="12" fill="#D9D9D9"/>
<circle cx="12" cy="12" r="12" fill="#285398"/>
<circle cx="12" cy="12" r="12" fill="url(#paint0_radial_113_669)" fill-opacity="0.2"/>
<path d="M18.3424 11.5016C18.5476 12.1408 18.6597 12.8225 18.6598 13.5299C18.6596 17.1914 15.6914 20.1598 12.0299 20.1598C8.36838 20.1597 5.40015 17.1914 5.40001 13.5299C5.40005 12.8226 5.51127 12.1407 5.71642 11.5016C6.57321 14.9927 9.07565 17.5191 12.0299 17.5192C14.9841 17.5192 17.4855 14.9925 18.3424 11.5016ZM13.1647 7.14026L16.569 6.5553L14.36 9.20959L16.569 11.8649L13.1647 11.2789L11.9703 14.5201L10.775 11.2789L7.37169 11.8649L9.58067 9.20959L7.37169 6.5553L10.775 7.14026L11.9703 3.90002L13.1647 7.14026Z" fill="#FFD700"/>
<path d="M24 12C24 18.6274 18.6274 24 12 24C5.37258 24 0 18.6274 0 12C0 5.37258 5.37258 0 12 0C18.6274 0 24 5.37258 24 12ZM0.84 12C0.84 18.1635 5.8365 23.16 12 23.16C18.1635 23.16 23.16 18.1635 23.16 12C23.16 5.8365 18.1635 0.84 12 0.84C5.8365 0.84 0.84 5.8365 0.84 12Z" fill="#FFD700"/>
<path d="M24 12C24 18.6274 18.6274 24 12 24C5.37258 24 0 18.6274 0 12C0 5.37258 5.37258 0 12 0C18.6274 0 24 5.37258 24 12ZM0.72 12C0.72 18.2298 5.77023 23.28 12 23.28C18.2298 23.28 23.28 18.2298 23.28 12C23.28 5.77023 18.2298 0.72 12 0.72C5.77023 0.72 0.72 5.77023 0.72 12Z" fill="#283F64"/>
<defs>
<radialGradient id="paint0_radial_113_669" cx="0" cy="0" r="1" gradientUnits="userSpaceOnUse" gradientTransform="translate(12 12) rotate(90) scale(12)">
<stop stop-color="white" stop-opacity="0"/>
<stop offset="1"/>
</radialGradient>
</defs>
</svg>
